<?xml version="1.0" standalone="no"?>
<!DOCTYPE svg PUBLIC "-//W3C//DTD SVG 20010904//EN"
 "http://www.w3.org/TR/2001/REC-SVG-20010904/DTD/svg10.dtd">
<svg version="1.0" xmlns="http://www.w3.org/2000/svg"
 width="32.000000pt" height="32.000000pt" viewBox="0 0 32.000000 32.000000"
 preserveAspectRatio="xMidYMid meet">

<g transform="translate(0.000000,32.000000) scale(0.100000,-0.100000)"
fill="#000000" stroke="none">
<path d="M50 248 l-31 -43 108 -3 108 -3 32 38 c18 21 33 41 33 46 0 4 -49 7
-109 7 l-109 0 -32 -42z"/>
<path d="M260 195 c-10 -11 -35 -15 -110 -15 -93 0 -98 -1 -114 -25 l-16 -25
112 0 113 0 28 40 c20 29 24 40 14 40 -8 0 -20 -7 -27 -15z"/>
<path d="M264 125 c-5 -12 -26 -15 -106 -15 -91 0 -101 -2 -119 -22 -10 -13
-18 -26 -19 -30 0 -5 49 -8 109 -8 l109 0 24 33 c38 50 41 57 23 57 -8 0 -18
-7 -21 -15z"/>
</g>
</svg>
